<svg xmlns="http://www.w3.org/2000/svg" width="1000" height="1000" viewBox="0 0 1000 1000" version="1.1">
	<path d="M 266.531 267.047 C 253.896 269.028, 239.480 275.240, 230 282.791 C 223.100 288.287, 179.543 331.660, 173.553 339 C 166.902 347.149, 162.682 354.644, 159.535 363.899 C 151.685 386.977, 154.918 411.571, 168.580 432.706 C 171.041 436.513, 218.818 485.067, 307.913 574.305 C 382.486 648.998, 446.425 712.505, 450 715.431 C 453.575 718.358, 459.015 722.160, 462.090 723.881 C 470.091 728.360, 480.978 731.822, 491.171 733.129 C 510.198 735.569, 531.673 729.688, 547.500 717.704 C 553.361 713.265, 821.275 445.571, 826.933 438.500 C 836.631 426.379, 842.138 413.354, 844.129 397.829 C 845.552 386.737, 844.133 374.346, 840.151 363.095 C 834.498 347.119, 828.210 339.267, 794.299 305.836 C 766.632 278.559, 759.274 273.511, 739.500 268.235 C 731.406 266.075, 712.737 266.129, 703.681 268.339 C 695.785 270.266, 684.258 275.384, 677.325 280.042 C 674.671 281.825, 633.686 322.025, 586.247 369.376 L 499.995 455.467 414.247 369.896 C 367.086 322.832, 326.171 282.663, 323.324 280.632 C 316.626 275.852, 305.226 270.661, 296.949 268.621 C 288.657 266.577, 274.276 265.833, 266.531 267.047" stroke="none"  fill-rule="evenodd"/>
</svg>