<svg xmlns="http://www.w3.org/2000/svg" width="1000" height="1000" viewBox="0 0 1000 1000" version="1.1">
	<path d="M 295.500 173.452 C 276.158 177.012, 256.931 187.568, 243.902 201.780 C 232.379 214.349, 224.268 230.104, 220.888 246.482 C 219.102 255.132, 219.026 265.473, 219.026 500 C 219.026 734.527, 219.102 744.868, 220.888 753.518 C 226.898 782.638, 247.009 807.607, 274.487 820.067 C 277.974 821.648, 284.578 823.967, 289.163 825.221 L 297.500 827.500 528 827.500 L 758.500 827.500 763.195 825.187 C 769.206 822.227, 775.253 816.169, 778.159 810.195 C 781.192 803.963, 781.798 793.918, 779.550 787.152 C 776.944 779.305, 772.275 774.096, 762.882 768.558 C 741.361 755.869, 732.377 740.191, 734.958 719.832 C 736.075 711.025, 738.194 704.226, 741.762 698 C 743.181 695.525, 749.102 688.715, 754.921 682.866 C 769.288 668.423, 776.067 656.734, 779.490 640.500 C 780.761 634.471, 780.966 607.279, 780.969 444.500 C 780.974 264.085, 780.889 255.090, 779.112 246.482 C 775.451 228.743, 766.527 212.278, 753.609 199.428 C 741.681 187.561, 728.210 179.696, 711.470 174.823 L 703.500 172.503 503 172.333 C 343.125 172.198, 301.082 172.425, 295.500 173.452 M 344 437.500 L 344 641.033 519.250 640.766 L 694.500 640.500 700 637.887 C 706.996 634.564, 712.564 628.996, 715.887 622 L 718.500 616.500 718.500 437.500 L 718.500 258.500 715.887 253 C 712.564 246.004, 706.996 240.436, 700 237.113 L 694.500 234.500 519.250 234.234 L 344 233.967 344 437.500 M 420.500 314.389 C 409.651 319.128, 404.084 330.938, 407.384 342.213 C 409.340 348.897, 413.670 354.155, 419.460 356.876 L 423.978 359 531.239 358.978 C 633.595 358.957, 638.683 358.871, 642.500 357.100 C 647.443 354.807, 652.399 349.698, 654.449 344.782 C 656.435 340.022, 656.435 331.978, 654.449 327.218 C 652.505 322.557, 647.622 317.403, 642.790 314.912 C 639.202 313.063, 635.515 313.001, 531.290 313.039 C 444.661 313.071, 422.911 313.336, 420.500 314.389 M 419.500 393.030 C 410.823 397.262, 405.128 408, 406.546 417.456 C 407.419 423.280, 411.860 430.217, 416.815 433.496 C 419.181 435.062, 423.277 436.487, 427.140 437.088 C 431.051 437.697, 458.059 437.971, 496.522 437.793 C 557.981 437.507, 559.609 437.450, 564 435.410 C 566.475 434.261, 570.158 431.480, 572.183 429.231 C 579.966 420.591, 579.950 407.975, 572.145 398.857 C 570.202 396.586, 566.787 393.899, 564.556 392.886 C 560.741 391.153, 556.432 391.045, 492 391.062 C 426.131 391.079, 423.346 391.155, 419.500 393.030 M 305.500 703.930 C 296.253 706.167, 289.140 711.939, 284.823 720.708 C 282.057 726.326, 281.558 728.432, 281.571 734.423 C 281.583 739.906, 282.165 742.738, 284.156 747 C 287.413 753.971, 292.978 759.551, 300 762.887 L 305.500 765.500 493.250 765.765 C 596.513 765.911, 681 765.786, 681 765.487 C 681 765.188, 679.638 762.244, 677.973 758.946 C 672.998 749.092, 671.657 742.106, 672.319 729.500 C 672.652 723.155, 673.765 715.437, 674.948 711.263 C 676.077 707.282, 677 703.795, 677 703.513 C 677 702.705, 308.853 703.119, 305.500 703.930" stroke="none"  fill-rule="evenodd"/>
</svg>