<svg xmlns="http://www.w3.org/2000/svg" width="1000" height="1000" viewBox="0 0 1000 1000" version="1.1">
	<path d="M 474 126.074 C 459.944 127.468, 437.138 131.795, 423.805 135.596 C 406.040 140.661, 394.204 145.291, 375.500 154.494 C 347.381 168.328, 323.742 185.258, 301.490 207.497 C 287.488 221.490, 275.549 236.060, 265.429 251.500 C 244.849 282.902, 232.070 313.616, 224.654 349.500 C 220.189 371.105, 219.498 379.010, 219.538 408 C 219.566 428.489, 220.004 438.368, 221.258 446.749 C 226.326 480.619, 236.092 510.062, 251.691 538.500 C 263.786 560.549, 287.766 594.231, 318.500 632.341 C 353.605 675.871, 368.575 695.730, 386.085 722 C 405.436 751.032, 421.834 779.562, 436.952 810.500 C 447.287 831.651, 453.648 846.062, 463.182 869.932 C 467.012 879.520, 470.994 889.027, 472.031 891.060 C 474.776 896.441, 482.426 902.752, 488.328 904.505 C 494.771 906.418, 505.229 906.418, 511.672 904.505 C 517.574 902.752, 525.224 896.441, 527.969 891.060 C 529.006 889.027, 532.988 879.520, 536.816 869.932 C 550.321 836.113, 563.225 808.376, 577.958 781.500 C 605.781 730.744, 628.307 698.292, 681.498 632.337 C 712.086 594.410, 736.280 560.427, 748.309 538.500 C 763.765 510.323, 773.352 481.589, 778.503 448 C 780.740 433.414, 781.585 397.538, 780.073 381.411 C 778.505 364.698, 776.793 354.802, 772.393 337 C 762.916 298.667, 744.592 261.986, 718.941 230 C 708.182 216.585, 689.440 197.839, 676 187.052 C 648.083 164.646, 614.786 147.174, 580 136.677 C 567.434 132.886, 553.279 129.849, 537 127.453 C 524.283 125.582, 487.158 124.769, 474 126.074 M 471.500 189.582 C 449.816 192.927, 428.648 199.171, 409.143 207.976 C 394.832 214.437, 389.241 217.533, 375.387 226.669 C 365.587 233.131, 344.673 249.979, 341.262 254.159 C 340.207 255.452, 345.159 259.907, 374.728 284.264 C 393.815 299.987, 409.771 312.642, 410.185 312.385 C 410.600 312.129, 431.958 286.400, 457.649 255.210 C 483.339 224.019, 506.358 196.137, 508.801 193.250 L 513.243 188 496.871 188.097 C 487.867 188.150, 476.450 188.818, 471.500 189.582 M 503.397 248.766 C 478.591 278.870, 458.341 303.558, 458.397 303.629 C 458.454 303.700, 463.675 302.429, 470 300.805 C 479.029 298.487, 484.508 297.739, 495.500 297.324 C 512.354 296.687, 524.420 298.387, 539.998 303.594 C 558.619 309.819, 574.345 319.718, 588.674 334.238 C 593.159 338.782, 599.266 345.929, 602.246 350.121 C 611.788 363.543, 618.839 380.064, 622.679 398 C 624.039 404.355, 624.476 410.538, 624.411 422.500 C 624.363 431.300, 623.826 440.513, 623.218 442.973 C 622.610 445.433, 622.215 447.548, 622.340 447.673 C 622.464 447.798, 642.213 424.040, 666.225 394.878 L 709.882 341.856 706.378 331.678 C 704.450 326.080, 700.219 315.971, 696.976 309.213 C 686.826 288.069, 673.950 270.013, 656.969 253.115 C 646.035 242.234, 631.495 230.690, 618.842 222.842 C 607.670 215.913, 589.590 206.996, 577.891 202.646 C 568.064 198.992, 551.681 193.988, 549.638 194.016 C 549.012 194.024, 528.204 218.662, 503.397 248.766 M 314.635 288.190 C 308.493 297.646, 300.396 313.435, 295.950 324.626 C 291.864 334.913, 287.354 351.235, 285.005 364.243 C 283.938 370.152, 282.529 381.965, 281.874 390.493 C 280.948 402.540, 280.951 409.501, 281.888 421.693 C 283.002 436.192, 286.258 456.952, 287.831 459.589 C 288.214 460.230, 309.223 435.533, 337 401.788 C 363.675 369.381, 386.495 341.610, 387.711 340.075 L 389.923 337.284 357.433 310.514 C 339.565 295.791, 323.839 282.875, 322.489 281.812 L 320.033 279.881 314.635 288.190 M 486.168 329.154 C 475.906 330.623, 462.091 335.573, 452.476 341.225 C 446.415 344.788, 440.551 349.421, 434.407 355.500 C 419.220 370.527, 410.542 387.517, 407.357 408.463 C 403.574 433.341, 410.737 459.838, 426.701 480.028 C 435.299 490.900, 445.340 498.943, 458.500 505.495 C 470.086 511.264, 480.835 514.314, 493.604 515.457 C 501.279 516.143, 514.889 514.801, 524.500 512.410 C 533.781 510.101, 551.544 500.814, 559.769 493.970 C 584.580 473.325, 597.425 439.914, 592.643 408.463 C 591.803 402.943, 589.719 394.565, 588.012 389.845 C 581.789 372.649, 568.595 355.482, 553.725 345.237 C 544.402 338.813, 538.384 335.827, 528.459 332.699 C 514.497 328.299, 500.395 327.116, 486.168 329.154 M 584.471 543.151 C 511.887 631.234, 451.892 704.263, 451.148 705.437 C 449.918 707.380, 450.333 708.426, 455.741 717.036 C 468.312 737.050, 491.424 780.942, 496.531 794.500 C 497.774 797.800, 499.384 800.500, 500.109 800.500 C 500.834 800.500, 502.601 797.350, 504.035 793.500 C 506.981 785.590, 519.732 762.591, 540.349 728 C 565.824 685.257, 584.663 656.407, 596.396 642.169 C 599.872 637.951, 610.062 624.600, 619.041 612.500 C 628.020 600.400, 640.475 584.069, 646.720 576.208 C 676.635 538.553, 690.349 517.422, 701.039 492.508 C 710.652 470.104, 715.922 448.470, 718.047 422.685 C 719.104 409.873, 718.463 383, 717.101 383 C 716.739 383, 657.056 455.068, 584.471 543.151 M 337.675 450.048 L 299.850 496.050 305.526 506.775 C 313.436 521.720, 327.432 542.543, 343.724 563.602 C 379.958 610.442, 398.812 635.366, 413.998 656.500 C 423.088 669.150, 430.880 679.407, 431.315 679.293 C 432.089 679.091, 548.913 537.682, 548.611 537.312 C 548.527 537.209, 544.773 538.429, 540.269 540.023 C 527.366 544.588, 516.252 546.376, 500.500 546.420 C 492.800 546.441, 483.125 545.856, 479 545.120 C 460.057 541.740, 440.226 533.103, 424.872 521.545 C 397.892 501.235, 380.402 470.855, 375.909 436.500 C 375.199 431.069, 374.980 422.840, 375.358 415.750 C 375.702 409.288, 375.874 404.010, 375.742 404.023 C 375.609 404.035, 358.479 424.746, 337.675 450.048" stroke="none"  fill-rule="evenodd"/>
</svg>