<svg xmlns="http://www.w3.org/2000/svg" width="1000" height="1000" viewBox="0 0 1000 1000" version="1.1">
	<path d="M 199.520 220.107 C 189.817 221.532, 178.139 224.875, 170.445 228.430 C 150.802 237.506, 136.450 251.924, 127.261 271.811 C 122.680 281.725, 118.469 298.693, 117.037 313 C 116.200 321.362, 115.986 374.299, 116.251 507 C 116.583 673.035, 116.768 690.236, 118.295 697.655 C 122.380 717.509, 129.773 734.486, 139.431 746.195 C 150.225 759.281, 167.447 770.017, 186.365 775.454 C 206.509 781.243, 192.533 781, 504.979 781 C 702.929 781, 794.235 780.669, 799.533 779.932 C 812.309 778.155, 821.988 775.238, 832.500 769.996 C 860.223 756.172, 875.425 733.221, 882.175 695 C 883.243 688.952, 883.500 651.190, 883.500 500 C 883.500 323.640, 883.393 311.944, 881.702 303.148 C 874.195 264.113, 855.844 240.480, 823.128 227.715 C 818.932 226.078, 810.325 223.569, 804 222.140 L 792.500 219.541 499 219.385 C 334.724 219.298, 202.867 219.616, 199.520 220.107 M 223 281.879 C 223 283.298, 459.119 516.583, 466.540 522.496 C 475.643 529.750, 483.551 533.806, 492.047 535.577 C 504.218 538.115, 514.099 535.683, 527.707 526.803 C 533.411 523.081, 544.747 512.576, 570 487.612 C 700.303 358.798, 777 282.555, 777 281.837 C 777 281.377, 652.350 281, 500 281 C 341.348 281, 223 281.376, 223 281.879 M 179 500.543 L 179 677.246 242.750 614.189 C 277.813 579.508, 318.073 539.515, 332.219 525.316 L 357.938 499.500 274.847 417.500 C 229.148 372.400, 188.887 332.877, 185.379 329.670 L 179 323.841 179 500.543 M 731.284 411.793 L 642.067 499.500 730.992 588.458 C 779.901 637.385, 820.162 677.171, 820.461 676.872 C 820.761 676.573, 820.892 597.074, 820.753 500.207 L 820.500 324.087 731.284 411.793 M 312.211 629.585 C 263.695 677.757, 224 717.582, 224 718.085 C 224 718.636, 334.097 719, 500.748 719 L 777.496 719 689 630.500 C 640.327 581.825, 600.109 542, 599.626 542 C 599.143 542, 591.717 548.876, 583.124 557.280 C 560.863 579.052, 549.272 587.228, 531.851 593.445 C 519.077 598.004, 509.498 599.389, 495.250 598.736 C 486.755 598.347, 481.069 597.477, 474.723 595.596 C 463.262 592.197, 450.512 585.725, 439.976 577.958 C 435.314 574.521, 424.704 565.024, 416.398 556.854 C 408.092 548.684, 401.100 542, 400.859 542 C 400.618 542, 360.727 581.413, 312.211 629.585" stroke="none"  fill-rule="evenodd"/>
</svg>