<svg xmlns="http://www.w3.org/2000/svg" width="1000" height="1000" viewBox="0 0 1000 1000" version="1.1">
	<path d="M 476.136 157.028 C 364.060 165.827, 266.769 224.559, 207.829 319 C 153.865 405.468, 141.554 513.854, 174.662 611 C 240.118 803.059, 458.182 896.918, 643 812.582 C 787.619 746.589, 868.123 588.801, 836.918 432.500 C 807.449 284.888, 684.569 173.174, 535 158.018 C 519.995 156.498, 489.438 155.984, 476.136 157.028 M 468 220.575 C 356.115 233.809, 262.980 311.671, 230.656 419 C 214.997 470.992, 215.161 530.592, 231.104 582.358 C 261.060 679.620, 341.527 753.144, 441.698 774.783 C 446.758 775.876, 451.145 776.522, 451.448 776.218 C 451.752 775.915, 452 735.917, 452 687.333 L 452 599 414 599 L 376 599 376 554.012 L 376 509.024 413.750 508.762 L 451.500 508.500 452.113 467.500 C 452.753 424.701, 453.477 416.313, 458.072 398.522 C 468.198 359.309, 499.353 331.914, 542.321 324.440 C 556.635 321.951, 592.454 322.456, 625.250 325.609 L 632 326.258 632 366.629 L 632 407 605.750 407.020 C 567.848 407.048, 561.486 408.428, 551.877 418.701 C 542.824 428.379, 542.534 430.031, 542.516 472 L 542.500 508.500 585.750 508.761 C 609.538 508.904, 629 509.276, 629 509.587 C 629 509.899, 626.525 529.884, 623.500 554 C 620.475 578.116, 618 598.106, 618 598.423 C 618 598.740, 600.900 599, 580 599 L 542 599 542 688.519 L 542 778.038 544.250 777.532 C 545.487 777.253, 551.091 776.116, 556.701 775.004 C 664.381 753.664, 752.154 666.782, 774.922 559 C 781.304 528.783, 782.670 487.023, 778.208 458.500 C 765.601 377.908, 720.686 308.379, 652.305 263.599 C 599.833 229.238, 530.869 213.139, 468 220.575" stroke="none" fill="white" fill-rule="evenodd"/>
</svg>