<svg xmlns="http://www.w3.org/2000/svg" width="1000" height="1000" viewBox="0 0 1000 1000" version="1.1">
	<path d="M 492 47.876 C 486.985 49.526, 481.419 52.885, 478 56.325 C 476.055 58.282, 463.891 78.434, 450.628 101.673 C 437.499 124.678, 426.618 143.656, 426.447 143.848 C 426.277 144.039, 414.420 137.159, 400.098 128.559 C 385.776 119.959, 372.358 112.200, 370.279 111.317 C 368.038 110.365, 363.651 109.704, 359.500 109.693 C 351.633 109.673, 345.471 111.875, 338.955 117.035 C 334.428 120.621, 329.293 130.336, 328.403 137 C 326.786 149.111, 339.554 198.371, 351.732 227 C 366.679 262.139, 385.742 289.978, 408.410 309.769 L 414.320 314.929 410.308 319.281 L 406.297 323.634 398.361 315.991 C 384.730 302.862, 368.089 292.965, 350 287.230 C 344.775 285.574, 337.125 283.629, 333 282.909 C 323.361 281.225, 301.639 281.225, 292 282.909 C 273.763 286.093, 252.739 295.103, 238.125 305.999 C 228.508 313.168, 215.805 326.415, 209.294 336.064 C 199.248 350.952, 192.497 367.473, 189.548 384.385 C 187.544 395.880, 187.542 417.301, 189.545 428.140 C 191.328 437.790, 195.059 449.682, 199.227 459 C 206.750 475.819, 224.304 496.878, 240 507.913 C 254.664 518.222, 273.608 526.226, 290 529.040 C 294.125 529.748, 297.675 530.466, 297.889 530.635 C 298.102 530.805, 296.687 533.994, 294.744 537.722 C 292.801 541.450, 289.844 548.550, 288.173 553.500 C 283.038 568.711, 281.701 576.966, 281.696 593.500 C 281.692 605.165, 282.184 610.835, 283.904 619 C 285.121 624.775, 287.874 633.892, 290.020 639.260 C 296.679 655.912, 305.200 668.908, 317.699 681.479 C 334.517 698.394, 355.597 709.962, 380.624 716.012 L 384.748 717.009 382.288 723.755 C 375.841 741.426, 373.511 765.130, 376.384 783.831 C 378.300 796.299, 383.523 812.356, 389.236 823.337 C 405.141 853.908, 435.115 877.805, 468.393 886.445 C 482.155 890.018, 497.712 891.284, 511.250 889.933 C 533.016 887.760, 551.378 881.281, 568.984 869.560 C 591.715 854.427, 608.877 832.380, 617.867 806.765 C 623.075 791.928, 624.451 783.283, 624.438 765.500 C 624.425 747.995, 622.964 738.705, 618.028 724.750 L 615.287 717 619.393 716.008 C 636.956 711.764, 656.014 703.164, 668.155 694.004 C 676.044 688.052, 687.016 677.261, 692.736 669.829 C 706.818 651.532, 715.339 629.992, 718.027 605.895 C 719.389 593.689, 718.674 581.351, 715.831 568 C 713.682 557.908, 708.485 543.360, 704.444 536.124 C 703.100 533.717, 702 531.443, 702 531.069 C 702 530.696, 705.487 529.816, 709.750 529.116 C 725.863 526.466, 745.239 518.290, 760 507.913 C 775.710 496.868, 792.032 477.371, 800.314 459.759 C 804.765 450.291, 808.531 438.549, 810.455 428.140 C 812.458 417.301, 812.456 395.880, 810.452 384.385 C 807.503 367.473, 800.752 350.952, 790.706 336.064 C 784.195 326.415, 771.492 313.168, 761.875 305.999 C 747.261 295.103, 726.237 286.093, 708 282.909 C 703.875 282.188, 694.650 281.599, 687.500 281.599 C 672.573 281.599, 663.431 282.972, 650 287.230 C 631.890 292.972, 615.369 302.803, 601.564 316.051 L 593.500 323.790 589.706 319.424 L 585.911 315.058 596.590 304.779 C 609.263 292.581, 616.407 284.037, 625.254 270.500 C 637.841 251.239, 647.295 231.520, 655.937 206.500 C 665.270 179.478, 672.803 146.045, 671.597 137 C 670.708 130.337, 665.573 120.622, 661.045 117.035 C 654.529 111.875, 648.367 109.673, 640.500 109.693 C 636.349 109.704, 631.962 110.365, 629.721 111.317 C 627.642 112.200, 614.224 119.959, 599.902 128.559 C 585.580 137.159, 573.723 144.039, 573.553 143.848 C 573.382 143.656, 562.501 124.663, 549.372 101.640 C 534.907 76.276, 524.017 58.289, 521.736 55.994 C 516.283 50.508, 509.850 47.770, 501.500 47.380 C 497.650 47.200, 493.375 47.423, 492 47.876 M 481.134 174.010 C 471.076 191.615, 461.370 207.586, 459.564 209.501 C 457.758 211.416, 453.630 214.204, 450.390 215.698 C 445.721 217.850, 443.001 218.416, 437.266 218.429 C 430.598 218.443, 429.329 218.081, 421.041 213.792 L 412.050 209.140 416.650 218.320 C 429.777 244.516, 446.795 263.344, 466.136 273.069 C 476.587 278.323, 487.976 280.986, 500 280.986 C 517.964 280.986, 534.411 275.009, 549.212 263.103 C 561.649 253.098, 573.142 238.207, 582.405 220.098 L 588.032 209.098 579 213.771 C 570.668 218.082, 569.406 218.443, 562.734 218.429 C 557.095 218.417, 554.268 217.845, 549.914 215.837 C 546.841 214.420, 542.733 211.666, 540.784 209.718 C 538.836 207.769, 528.992 191.736, 518.910 174.087 C 508.828 156.439, 500.318 142, 500 142 C 499.682 142, 491.192 156.404, 481.134 174.010 M 297.724 345.507 C 294.547 346.309, 288.472 348.650, 284.224 350.709 C 278.511 353.478, 274.531 356.412, 268.935 361.981 C 263.284 367.604, 260.331 371.585, 257.261 377.717 C 251.742 388.744, 249.559 398.841, 250.299 409.916 C 250.614 414.637, 251.787 421.432, 252.904 425.015 C 256.900 437.833, 266.779 450.676, 278.757 458.627 C 281.867 460.691, 288.257 463.728, 292.956 465.376 C 300.467 468.009, 302.830 468.370, 312.500 468.359 C 321.870 468.348, 324.684 467.939, 331.490 465.599 C 335.885 464.089, 341.972 461.339, 345.017 459.490 C 352.094 455.190, 361.563 445.712, 365.821 438.665 C 373.768 425.512, 376.709 408.667, 373.618 394 C 372.749 389.875, 370.263 382.900, 368.093 378.500 C 360.928 363.970, 348.188 352.690, 332.807 347.259 C 327.026 345.218, 323.203 344.613, 314.500 344.363 C 307.186 344.153, 301.564 344.537, 297.724 345.507 M 485 345.576 C 477.112 347.648, 466.308 353.196, 460.436 358.192 C 450.157 366.937, 442.738 378.505, 439.571 390.724 C 437.573 398.437, 437.542 413.769, 439.509 421.540 C 443.808 438.525, 456.178 453.852, 472.043 461.851 C 478.568 465.140, 482.880 466.533, 490.293 467.744 C 499.143 469.191, 500.852 469.191, 509.652 467.753 C 516.888 466.571, 521.449 465.113, 527.869 461.932 C 534.452 458.670, 538.178 455.933, 543.981 450.094 C 549.359 444.684, 552.601 440.343, 555.256 435 C 557.306 430.875, 559.662 424.818, 560.491 421.540 C 562.457 413.773, 562.427 398.437, 560.430 390.731 C 557.252 378.465, 549.468 366.373, 539.299 357.905 C 533.404 352.995, 522.499 347.538, 514.540 345.515 C 507.116 343.628, 492.301 343.659, 485 345.576 M 672.724 345.507 C 669.547 346.309, 663.472 348.650, 659.224 350.709 C 653.511 353.478, 649.531 356.412, 643.935 361.981 C 638.284 367.604, 635.331 371.585, 632.261 377.717 C 626.742 388.744, 624.559 398.841, 625.299 409.916 C 625.614 414.637, 626.787 421.432, 627.904 425.015 C 631.900 437.833, 641.779 450.676, 653.757 458.627 C 656.867 460.691, 663.257 463.728, 667.956 465.376 C 675.467 468.009, 677.830 468.370, 687.500 468.359 C 696.870 468.348, 699.684 467.939, 706.490 465.599 C 710.885 464.089, 716.972 461.339, 720.017 459.490 C 727.094 455.190, 736.563 445.712, 740.821 438.665 C 748.768 425.512, 751.709 408.667, 748.618 394 C 747.749 389.875, 745.263 382.900, 743.093 378.500 C 735.928 363.970, 723.188 352.690, 707.807 347.259 C 702.026 345.218, 698.203 344.613, 689.500 344.363 C 682.186 344.153, 676.564 344.537, 672.724 345.507 M 396.247 532.045 C 388.831 533.371, 380.553 536.435, 374.110 540.238 C 371.072 542.032, 365.633 546.425, 362.024 550 C 354.461 557.492, 347.901 569.075, 345.535 579.114 C 342.150 593.475, 344.567 611.135, 351.665 623.899 C 356.367 632.353, 367.647 643.633, 376.101 648.335 C 388.865 655.433, 406.525 657.850, 420.886 654.465 C 430.826 652.122, 442.266 645.640, 449.886 638.033 C 460.353 627.583, 465.764 616.848, 468.077 601.940 C 470.982 583.220, 464.435 564.347, 450.044 549.956 C 442.049 541.961, 433.124 536.552, 423.032 533.585 C 416.157 531.565, 403.122 530.815, 396.247 532.045 M 583.129 532.126 C 576.526 533.223, 567.752 536.700, 560.374 541.145 C 549.022 547.984, 537.666 563.078, 533.690 576.615 C 528.992 592.612, 531.429 610.954, 540.238 625.897 C 542.032 628.940, 546.477 634.401, 550.114 638.033 C 557.734 645.640, 569.174 652.122, 579.114 654.465 C 593.475 657.850, 611.135 655.433, 623.899 648.335 C 632.353 643.633, 643.633 632.353, 648.335 623.899 C 655.433 611.135, 657.850 593.475, 654.465 579.114 C 652.122 569.174, 645.640 557.734, 638.033 550.114 C 627.828 539.892, 617.048 534.349, 602.911 532.055 C 595.515 530.855, 590.674 530.873, 583.129 532.126 M 487 704.555 C 483.425 705.323, 476.675 707.828, 472 710.121 C 465.375 713.372, 461.810 715.997, 455.837 722.026 C 449.887 728.030, 447.279 731.632, 444.177 738.130 C 441.979 742.734, 439.690 748.885, 439.090 751.799 C 437.506 759.502, 437.753 774.252, 439.585 781.356 C 442.304 791.895, 447.572 800.691, 456.443 809.504 C 465.679 818.680, 473.250 823.123, 484.596 826.025 C 494.509 828.560, 505.491 828.560, 515.404 826.025 C 526.909 823.082, 534.347 818.724, 543.547 809.537 C 552.410 800.685, 557.714 791.823, 560.415 781.356 C 562.429 773.548, 562.464 758.245, 560.485 750.460 C 559.652 747.182, 557.338 741.159, 555.344 737.075 C 552.731 731.725, 549.591 727.503, 544.109 721.970 C 538.185 715.992, 534.618 713.370, 528 710.128 C 514.158 703.347, 500.970 701.555, 487 704.555" stroke="none"  fill-rule="evenodd"/>
</svg>