<svg xmlns="http://www.w3.org/2000/svg" width="1000" height="1000" viewBox="0 0 1000 1000" version="1.1">
	<path d="M 466 156.625 C 454.289 157.323, 431.708 160.084, 421 162.127 C 371.588 171.556, 324.978 191.408, 284.648 220.202 C 270.155 230.550, 258.124 240.736, 243.651 254.913 C 215.654 282.337, 194.399 311.398, 177.029 346 C 163.312 373.326, 153.673 401.250, 147.516 431.500 C 142.800 454.672, 141 473.594, 141 500 C 141 526.406, 142.800 545.328, 147.516 568.500 C 153.622 598.500, 163.274 626.557, 176.757 653.500 C 193.094 686.143, 212.068 712.748, 237.996 739.362 C 266.417 768.536, 294.972 789.446, 331.136 807.568 C 367.244 825.662, 404.085 836.583, 446 841.619 C 463.479 843.718, 503.883 843.991, 523.500 842.141 C 562.296 838.483, 594.306 831.244, 624.500 819.299 C 647.497 810.201, 666.539 800.006, 685.377 786.704 C 699.339 776.845, 710.781 766.996, 723.527 753.862 C 740.602 736.270, 752.353 721.019, 765.031 700 C 773.056 686.696, 784.418 663.071, 790.378 647.299 C 802.978 613.951, 811.154 575.934, 814.098 537 C 815.386 519.953, 814.803 482.921, 813.026 469 C 811.342 455.808, 808.884 441.572, 808.157 440.808 C 807.796 440.428, 734.825 440.031, 646 439.926 L 484.500 439.736 484.243 505.368 L 483.986 571 577.493 571 C 638.309 571, 671 571.345, 671 571.986 C 671 574.161, 662.999 594.060, 658.634 602.743 C 648.701 622.500, 639.369 635.627, 624.065 651.367 C 600.482 675.625, 572.162 691.911, 538.722 700.448 C 521.174 704.927, 504.223 707, 485.132 707 C 468.015 707, 458.008 706.044, 442.154 702.892 C 410.952 696.690, 377.011 680.349, 351.972 659.474 C 342.114 651.255, 325.939 634.386, 318.899 624.982 C 296.186 594.643, 282.077 558.667, 278.036 520.789 C 275.867 500.457, 277.336 475.947, 282.002 454.624 C 287.984 427.288, 301.340 398.473, 318.899 375.018 C 325.962 365.583, 342.119 348.741, 352.073 340.439 C 363.649 330.784, 378.031 321.537, 393.052 314.092 C 421.891 299.797, 450.973 293.061, 484.026 293.020 C 507.917 292.989, 526.580 295.896, 548.500 303.059 C 570.917 310.385, 590.240 320.466, 609.107 334.678 L 619.209 342.288 667.355 294.087 L 715.500 245.886 710.260 241.016 C 703.277 234.527, 686.621 221.739, 675.500 214.328 C 648.917 196.613, 620.439 182.769, 590.739 173.123 C 568.373 165.859, 547.725 161.390, 523.125 158.488 C 510.486 156.997, 477.700 155.927, 466 156.625" stroke="none"  fill-rule="evenodd"/>
</svg>