<svg xmlns="http://www.w3.org/2000/svg" width="1000" height="1000" viewBox="0 0 1000 1000" version="1.1">
	<path d="M 410.500 188.666 C 338.686 191.485, 297.432 198.349, 267.336 212.487 C 253.763 218.863, 244.522 225.239, 234.880 234.880 C 225.239 244.522, 218.863 253.763, 212.487 267.336 C 200.146 293.607, 193.785 326.234, 189.936 383 C 187.278 422.201, 187.278 577.799, 189.936 617 C 193.785 673.766, 200.146 706.393, 212.487 732.664 C 214.854 737.703, 218.799 744.931, 221.253 748.725 C 230.743 763.394, 245.625 776.520, 262.585 785.179 C 279.284 793.704, 297.863 799.391, 322.281 803.450 C 363.309 810.271, 400.053 812.048, 499.975 812.044 C 573.282 812.040, 606.122 811.185, 638 808.447 C 657.515 806.771, 683.089 803.030, 696 799.962 C 716.488 795.095, 737.235 786.668, 749.892 778.073 C 764.138 768.399, 776.711 753.929, 785.221 737.415 C 790.190 727.773, 795.819 712.457, 799.061 699.763 C 803.795 681.220, 807.733 651.501, 810.095 616.500 C 812.746 577.202, 812.740 425.145, 810.086 385.500 C 809.460 376.150, 808.274 361.750, 807.450 353.500 C 802.510 304.033, 791.324 267.955, 773.940 245.423 C 771.676 242.488, 766.454 236.886, 762.336 232.974 C 744.471 216.004, 720.893 205.315, 685.500 198.141 C 663.972 193.777, 633.937 190.750, 595 189.020 C 575.618 188.159, 430.514 187.881, 410.500 188.666 M 384.500 250.675 C 370.864 251.141, 347.991 253.021, 337 254.581 C 322.439 256.647, 306.073 261.309, 296 266.261 C 289.409 269.501, 285.681 272.243, 279.402 278.470 C 270.158 287.636, 265.536 295.233, 261.131 308.500 C 255.431 325.667, 252.672 344.920, 251.026 379 C 249.739 405.640, 249.741 594.390, 251.027 621 C 252.765 656.935, 256.308 679.515, 262.876 696.500 C 267.032 707.250, 272.673 715.584, 281.028 723.320 C 291.868 733.356, 307.005 739.891, 328.835 743.960 C 343.014 746.602, 355.428 747.837, 379.500 748.999 C 405.754 750.266, 594.649 750.247, 621 748.974 C 664.580 746.870, 689.058 742.121, 706.789 732.331 C 714.801 727.907, 724.843 718.527, 730.007 710.643 C 737.966 698.494, 743.634 679.152, 746.459 654.500 C 747.279 647.350, 748.410 632.050, 748.973 620.500 C 750.282 593.662, 750.281 406.061, 748.973 379 C 747.235 343.065, 743.692 320.485, 737.124 303.500 C 733.054 292.972, 727.445 284.581, 719.530 277.177 C 701.741 260.536, 675.898 253.677, 621 251.026 C 603.439 250.178, 407.590 249.888, 384.500 250.675 M 643.336 315.424 C 636.898 318.422, 631.151 324.082, 627.988 330.542 C 626.039 334.522, 625.557 337.078, 625.545 343.500 C 625.534 349.559, 626.045 352.622, 627.652 356.122 C 630.692 362.744, 636.311 368.514, 642.839 371.720 C 647.623 374.069, 649.739 374.495, 656.500 374.470 C 662.901 374.446, 665.491 373.955, 669.458 372.012 C 672.185 370.677, 676.103 367.897, 678.166 365.834 C 683.929 360.071, 686.261 354.671, 686.787 345.873 C 687.436 335.015, 685.301 329.139, 678.090 321.936 C 671.374 315.227, 665.746 312.996, 655.572 313.010 C 650.217 313.017, 647.246 313.603, 643.336 315.424 M 476.928 345.466 C 452.568 349.445, 431.649 357.718, 411.500 371.339 C 399.554 379.415, 379.350 399.656, 371.143 411.771 C 364.097 422.171, 355.370 439.706, 351.620 451 C 350.250 455.125, 348.106 463.225, 346.855 469 C 344.904 478.005, 344.580 482.419, 344.580 500 C 344.580 517.581, 344.904 521.995, 346.855 531 C 349.861 544.876, 353.061 554.274, 359.105 566.972 C 367.137 583.848, 375.759 595.903, 389.928 610.072 C 404.094 624.239, 416.145 632.858, 433.028 640.898 C 445.289 646.737, 455.499 650.195, 469.435 653.229 C 477.962 655.085, 482.633 655.420, 500 655.420 C 517.367 655.420, 522.038 655.085, 530.565 653.229 C 544.800 650.130, 554.801 646.709, 567.729 640.517 C 584.322 632.569, 595.673 624.399, 610.072 610.038 C 624.242 595.908, 632.836 583.900, 640.898 566.972 C 646.737 554.711, 650.195 544.501, 653.229 530.565 C 655.085 522.038, 655.420 517.367, 655.420 500 C 655.420 482.633, 655.085 477.962, 653.229 469.435 C 650.195 455.499, 646.737 445.289, 640.898 433.028 C 632.836 416.100, 624.242 404.092, 610.072 389.962 C 595.670 375.598, 584.316 367.427, 567.729 359.486 C 554.436 353.122, 545.098 349.902, 531.500 346.990 C 518.454 344.197, 489.626 343.392, 476.928 345.466 M 490.500 406.617 C 474.144 409.092, 461.971 413.348, 450 420.779 C 445.875 423.340, 438.843 429.050, 434.372 433.468 C 421.260 446.426, 413.307 460.507, 408.807 478.726 C 407.155 485.416, 406.647 490.469, 406.669 500 C 406.701 514.082, 408.342 523.016, 413.070 534.853 C 417.583 546.154, 424.427 556.480, 433.468 565.628 C 446.440 578.754, 460.563 586.726, 478.726 591.175 C 490.939 594.167, 509.061 594.167, 521.274 591.175 C 539.138 586.800, 553.398 578.829, 566.114 566.114 C 578.829 553.398, 586.800 539.138, 591.175 521.274 C 594.167 509.061, 594.167 490.939, 591.175 478.726 C 586.800 460.862, 578.829 446.602, 566.114 433.886 C 553.498 421.270, 539.046 413.152, 521.794 408.990 C 513.660 407.027, 496.426 405.720, 490.500 406.617" stroke="none" fill="currentColor" fill-rule="evenodd"/>
</svg>