<svg xmlns="http://www.w3.org/2000/svg" width="1000" height="1000" viewBox="0 0 1000 1000" version="1.1">
	<path d="M 626.191 154.062 C 604.224 156.004, 578.453 162.825, 558.605 171.952 C 553.765 174.177, 545.573 178.489, 540.400 181.533 C 520.239 193.399, 512.975 199.874, 456.385 256.423 C 421.695 291.089, 399.708 313.856, 395.134 319.849 C 380.527 338.988, 370.149 358.376, 362.888 380.093 C 357.567 396.009, 354.297 412.322, 352.859 430.130 C 351.941 441.491, 351.943 448.069, 352.868 459.160 C 354.316 476.532, 357.796 494.330, 362.567 508.756 C 367.149 522.615, 377.306 543.645, 385.322 555.869 C 400.558 579.107, 421.787 600.216, 445.213 615.422 C 455.294 621.966, 475.015 631.636, 486.325 635.583 L 494.150 638.313 504.171 628.406 C 509.682 622.958, 516.438 615.575, 519.185 612 C 523.944 605.806, 532.516 589.639, 533.185 585.597 C 533.454 583.971, 532.334 583.441, 525.482 581.950 C 489.318 574.082, 458.390 552.923, 437.853 522 C 428.403 507.770, 421.223 490.290, 417.316 472 C 415.920 465.468, 415.502 459.102, 415.511 444.500 C 415.522 424.246, 416.502 417.289, 421.597 401.305 C 425.345 389.547, 435.145 370.550, 442.390 361 C 446.303 355.842, 470.003 331.445, 502.669 298.948 C 542.651 259.174, 558.430 244.124, 564 240.448 C 580.076 229.842, 597.714 222.484, 617.024 218.329 C 628.792 215.796, 657.785 215.791, 670.339 218.318 C 714.372 227.184, 751.199 255.653, 770.062 295.407 C 775.649 307.181, 779.338 318.107, 781.743 330 C 784.200 342.153, 784.169 371.339, 781.685 383 C 779.011 395.558, 773.481 411.393, 768.493 420.774 C 759.356 437.960, 755.535 442.532, 722.327 476.007 L 690.079 508.514 691.577 517.824 C 692.401 522.944, 693.452 533.281, 693.912 540.795 C 694.735 554.236, 693.831 579.497, 692.163 589.707 L 691.312 594.914 693.906 593.044 C 695.333 592.016, 719.251 568.298, 747.058 540.337 C 799.744 487.359, 806.873 479.299, 818.467 459.600 C 834.219 432.834, 843.415 403.262, 846.018 371 C 848.166 344.378, 844.165 314.647, 834.897 288.357 C 817.864 240.045, 781.807 198.891, 736.143 175.643 C 716.724 165.756, 693.645 158.424, 672.925 155.558 C 658.788 153.603, 638.674 152.959, 626.191 154.062 M 493.386 374.250 C 480.549 387.469, 475.674 394.085, 470.502 405.308 C 465.419 416.337, 465.353 416.062, 473.500 417.713 C 508.863 424.879, 541.482 446.913, 561.680 477.275 C 571.055 491.368, 578.748 509.761, 582.479 527 C 583.372 531.125, 584.362 541.475, 584.680 550 C 585.125 561.937, 584.867 568.028, 583.559 576.500 C 581.612 589.099, 575.859 607.355, 570.442 618.121 C 561.040 636.809, 558.860 639.283, 499.571 698.571 C 440.303 757.840, 437.803 760.042, 419.160 769.423 C 410.280 773.891, 394.545 779.227, 383 781.685 C 371.339 784.169, 342.153 784.200, 330 781.743 C 304.938 776.675, 280.475 764.452, 262 747.769 C 254.543 741.034, 245.779 730.952, 240.024 722.485 C 230.024 707.773, 221.951 688.323, 218.269 670.076 C 215.800 657.840, 215.825 628.691, 218.315 617 C 220.773 605.455, 226.109 589.720, 230.577 580.840 C 239.176 563.750, 244.024 557.897, 277.668 523.990 L 309.926 491.481 308.467 482.490 C 306.020 467.419, 305.076 446.933, 306.077 430.589 C 306.585 422.290, 307.380 413.157, 307.844 410.293 L 308.688 405.086 306.094 406.959 C 304.667 407.990, 280.746 431.708, 252.935 459.666 C 200.144 512.737, 193.170 520.627, 181.447 540.547 C 174.013 553.178, 168.988 564.211, 164.099 578.641 C 159.005 593.674, 155.374 611.748, 153.982 629 C 152.811 643.512, 153.295 656.309, 155.646 673 C 164.941 738.992, 207.258 796.886, 267.500 826.031 C 292.887 838.313, 317.280 844.545, 347.500 846.470 C 360.401 847.292, 381.183 845.594, 397 842.424 C 411.076 839.604, 429.130 833.771, 441.559 828.029 C 446.147 825.909, 454.199 821.645, 459.453 818.553 C 479.320 806.861, 487.309 799.809, 539.313 748.065 C 566.710 720.804, 592.571 694.553, 596.780 689.728 C 621.230 661.707, 636.526 630.713, 643.978 594.093 C 645.052 588.817, 646.470 578.047, 647.129 570.160 C 648.057 559.064, 648.060 552.503, 647.143 541.160 C 645.727 523.640, 642.270 505.871, 637.429 491.231 C 632.850 477.383, 622.691 456.352, 614.678 444.131 C 599.426 420.868, 578.217 399.787, 554.725 384.537 C 542.315 376.482, 511.192 362, 506.289 362 C 505.735 362, 499.929 367.512, 493.386 374.250" stroke="none"  fill-rule="evenodd"/>
</svg>