<svg xmlns="http://www.w3.org/2000/svg" width="1000" height="1000" viewBox="0 0 1000 1000" version="1.1">
	<path d="M 381.500 142.515 C 376.743 145.070, 372.908 149.136, 370.667 154 C 368.655 158.369, 368.572 160.637, 367.800 232 C 367.363 272.425, 366.640 317.425, 366.192 332 C 365.500 354.564, 365.106 359.068, 363.540 362.325 C 362.529 364.429, 360.630 366.852, 359.320 367.710 C 355.967 369.907, 348.303 371.159, 343 370.375 C 339.677 369.885, 337.543 368.757, 334.843 366.066 C 332.038 363.270, 331.015 361.281, 330.452 357.528 C 330.048 354.837, 330.262 310.242, 330.927 258.427 C 331.845 186.879, 331.857 163.170, 330.976 159.859 C 329.362 153.797, 325.515 149.115, 320.221 146.773 C 316.827 145.272, 314.193 144.882, 309.479 145.182 C 301.241 145.707, 295.661 149.256, 292.749 155.823 C 290.903 159.988, 290.428 165.151, 288.415 203 C 283.622 293.082, 282.660 317.661, 282.581 352 C 282.489 392.119, 282.666 393.430, 290.264 409 C 293.584 415.804, 296.141 419.236, 303.074 426.199 C 311.299 434.459, 312.523 435.279, 327.298 442.418 C 335.857 446.554, 344.437 451.323, 346.365 453.015 C 348.293 454.708, 350.687 458.210, 351.685 460.797 C 353.334 465.070, 353.478 468.746, 353.258 501 C 353.125 520.525, 352.105 587.575, 350.992 650 C 349.878 712.425, 348.862 778.575, 348.734 797 C 348.502 830.260, 348.517 830.542, 350.889 836.430 C 352.485 840.391, 355.141 844.251, 358.889 848.055 C 366.448 855.728, 372.752 858.100, 387.366 858.769 C 399.499 859.324, 406.778 858.135, 414.217 854.381 C 420.838 851.039, 425.752 845.754, 429.311 838.149 C 431.970 832.466, 432.419 830.253, 432.774 821.060 C 432.998 815.252, 432.018 745.250, 430.597 665.500 C 429.176 585.750, 427.897 508.350, 427.756 493.500 C 427.486 465.036, 427.852 461.957, 432.246 455.695 C 434.696 452.205, 438.876 449.614, 451 444.073 C 456.225 441.685, 463.462 437.825, 467.082 435.495 C 482.772 425.395, 493.108 409.976, 497.795 389.678 C 500.700 377.095, 499.723 337.127, 493.511 214.500 C 492.146 187.550, 490.560 163.277, 489.988 160.560 C 487.925 150.766, 480.553 145.044, 470 145.044 C 463.534 145.044, 457.255 147.589, 454.228 151.437 C 450.430 156.266, 449.541 160.808, 449.520 175.500 C 449.509 183.200, 449.895 227.331, 450.377 273.569 C 451.247 356.967, 451.238 357.675, 449.215 362.248 C 446.543 368.286, 442.650 370.365, 434 370.371 C 425.100 370.377, 420.755 368.174, 417.805 362.157 C 415.584 357.627, 415.501 356.386, 414.759 316.500 C 414.340 293.950, 413.660 248.950, 413.248 216.500 L 412.498 157.500 409.513 152.108 C 407.744 148.913, 404.928 145.657, 402.604 144.119 C 399.490 142.058, 397.218 141.459, 391.590 141.214 C 386.497 140.991, 383.655 141.358, 381.500 142.515 M 684.446 143.466 C 674.799 148.277, 662.558 163.230, 650.659 184.741 C 639.128 205.587, 628.008 231.207, 618.861 258 C 595.335 326.908, 582.036 408.321, 582.008 483.590 C 582.001 503.330, 582.287 507.801, 583.975 514.404 C 586.567 524.536, 591.114 532.880, 597.681 539.552 C 600.612 542.530, 608.499 548.645, 615.209 553.140 C 628.667 562.157, 635.624 568.521, 638.356 574.314 C 640.639 579.156, 640.664 576.503, 637.097 713 C 635.437 776.516, 634.594 823.943, 635.064 827.393 C 636.166 835.487, 641.054 844.998, 646.640 849.914 C 649.151 852.125, 653.747 854.947, 656.853 856.187 C 661.769 858.149, 664.312 858.441, 676.500 858.441 C 688.724 858.441, 691.223 858.152, 696.202 856.167 C 703.259 853.352, 711.347 846.223, 714.466 840.067 C 715.761 837.511, 717.311 832.768, 717.911 829.526 C 719.478 821.044, 719.450 165.197, 717.882 157.883 C 717.002 153.780, 715.775 151.684, 712.132 148.056 C 709.336 145.273, 705.868 142.960, 703.384 142.222 C 696.750 140.252, 690.003 140.696, 684.446 143.466" stroke="none"  fill-rule="evenodd"/>
</svg>