<svg xmlns="http://www.w3.org/2000/svg" width="1000" height="1000" viewBox="0 0 1000 1000" version="1.1">
	<path d="M 298 134.593 C 283.848 136.910, 277.519 139.503, 261.582 149.514 C 238.760 163.850, 216.706 181.226, 202.702 195.905 C 178.749 221.012, 167.559 253.553, 169.486 292.500 C 170.843 319.922, 174.321 343.123, 181.166 370.406 C 189.403 403.236, 200.686 433.015, 218.145 468 C 230.916 493.592, 241.741 512.271, 257.263 535.500 C 294.830 591.720, 338.365 640.280, 385 677.982 C 414.592 701.906, 447.450 723.196, 481.500 740.507 C 533.236 766.811, 586.887 784.071, 645 793.108 C 669.723 796.952, 695.596 795.765, 714.542 789.915 C 732.877 784.255, 758.826 767.788, 776.032 750.895 C 785.677 741.426, 792.975 732.609, 799.724 722.273 C 811.181 704.727, 822.064 677.697, 824.194 661.500 C 825.657 650.371, 823.517 638.401, 818.119 627.511 C 812.032 615.231, 805.743 609.085, 784.283 594.446 C 755.201 574.607, 719.678 549.819, 695.500 532.493 C 683.400 523.822, 671.250 515.683, 668.500 514.406 C 660.490 510.687, 651.180 508.662, 642 508.643 C 637.325 508.633, 631.025 509.205, 628 509.915 C 624.975 510.624, 618.900 512.943, 614.500 515.068 C 608.247 518.087, 601.372 523.221, 583.013 538.580 C 570.095 549.387, 558.479 558.628, 557.198 559.115 C 553.634 560.470, 547.229 560.170, 543.992 558.496 C 540.631 556.758, 413.379 419.406, 410.750 414.678 C 408.784 411.143, 408.482 405.494, 410.038 401.399 C 410.609 399.898, 419.512 390.081, 429.823 379.584 C 446.230 362.882, 449.036 359.548, 452.312 352.871 C 460.783 335.602, 461.120 316.197, 453.251 298.923 C 451.438 294.945, 431.784 266.995, 401.621 225.500 C 367.483 178.537, 350.849 156.491, 346 151.783 C 338.411 144.415, 329.044 139.080, 319.413 136.643 C 312.933 135.002, 301.933 133.949, 298 134.593 M 294.885 203.368 C 290.333 205.009, 286.660 207.576, 276 216.564 C 265.674 225.270, 254.225 237.150, 247.123 246.528 C 244.219 250.363, 239.838 257.550, 237.387 262.500 C 233.646 270.057, 232.768 272.985, 231.910 280.759 C 229.936 298.637, 233.845 328.613, 242.041 358.438 C 249.822 386.753, 260.618 414.218, 275.479 443.500 C 285.944 464.121, 296.017 481.156, 310.233 502.276 C 342.421 550.095, 379.121 591.622, 418 624.216 C 438.249 641.192, 465.958 660.517, 489 673.732 C 511.097 686.405, 541.170 700.543, 564 708.991 C 602.606 723.275, 645.726 732.943, 671.020 732.984 C 682.391 733.003, 691.939 730.644, 703.134 725.048 C 714.139 719.547, 722.268 713.748, 731.797 704.600 C 742.333 694.484, 748.830 685.924, 754.527 674.648 C 757.849 668.074, 759 664.639, 759 661.299 C 759 652.858, 757.225 650.847, 739.093 638.741 C 720.742 626.490, 677.190 596.394, 659.890 584.009 C 653.479 579.420, 647.293 575.770, 645.287 575.394 C 643.373 575.035, 640.163 575.236, 638.154 575.842 C 635.812 576.547, 625.883 584.162, 610.500 597.049 C 597.300 608.108, 583.800 618.662, 580.500 620.502 C 577.200 622.342, 571.575 624.857, 568 626.091 C 562.747 627.904, 559.294 628.337, 550 628.347 C 540.202 628.358, 537.304 627.964, 530.422 625.690 C 521.243 622.658, 512.593 617.374, 505.952 610.742 C 503.451 608.244, 468.126 570.150, 427.452 526.089 C 380.870 475.626, 352.116 443.700, 349.761 439.824 C 344.931 431.880, 342.282 424.699, 340.905 415.827 C 338.944 403.189, 341.318 390.017, 347.811 377.500 C 350.768 371.799, 355.002 366.877, 370.620 350.982 C 386.915 334.399, 389.975 330.806, 390.978 327.083 C 391.959 323.440, 391.889 322.009, 390.566 318.601 C 388.196 312.495, 311.032 206.913, 307.450 204.876 C 303.093 202.398, 298.953 201.901, 294.885 203.368" stroke="none"  fill-rule="evenodd"/>
</svg>