<svg xmlns="http://www.w3.org/2000/svg" width="1000" height="1000" viewBox="0 0 1000 1000" version="1.1">
	<path d="M 246.500 189.479 C 243.200 190.212, 238.250 191.583, 235.500 192.526 C 227.606 195.232, 216.047 201.360, 209.369 206.381 C 201.833 212.047, 192.770 221.625, 187.658 229.327 C 182.319 237.372, 177.257 248.686, 174.680 258.335 L 172.500 266.500 172.500 500 L 172.500 733.500 174.680 741.665 C 177.257 751.314, 182.319 762.628, 187.658 770.673 C 192.742 778.332, 201.796 787.916, 209.369 793.656 C 216.551 799.099, 232.841 807.031, 241.756 809.426 C 245.197 810.351, 253.072 811.526, 259.256 812.037 C 265.576 812.560, 341.806 812.975, 433.335 812.984 L 596.171 813 595.335 805.250 C 594.269 795.360, 594.255 766.696, 595.311 757.250 L 596.121 750 428.742 750 C 242.940 750, 256.043 750.487, 246.500 743.228 C 242.876 740.471, 240.537 737.537, 238 732.563 L 234.500 725.702 234.500 554.601 L 234.500 383.500 236.661 378.824 C 239.721 372.202, 246.276 365.503, 252.858 362.270 L 258.500 359.500 500 359.500 L 741.500 359.500 747.142 362.270 C 753.724 365.503, 760.279 372.202, 763.339 378.824 L 765.500 383.500 765.778 482.346 C 766.023 569.528, 766.233 581.125, 767.550 580.619 C 768.371 580.304, 775.118 579.508, 782.543 578.851 C 792.928 577.932, 799.364 577.926, 810.434 578.826 C 818.349 579.469, 825.549 580.273, 826.433 580.613 C 827.908 581.179, 828.019 568.086, 827.768 423.365 L 827.494 265.500 825.301 257.802 C 820.355 240.436, 810.713 224.547, 797.914 212.668 C 786.918 202.462, 775.401 195.935, 759 190.613 L 752.500 188.504 502.500 188.326 C 297.431 188.179, 251.422 188.387, 246.500 189.479 M 414.962 408.250 C 411.702 409.894, 409.894 411.702, 408.250 414.962 C 406.164 419.098, 406 420.743, 406 437.500 C 406 454.257, 406.164 455.902, 408.250 460.038 C 409.894 463.298, 411.702 465.106, 414.962 466.750 C 419.098 468.836, 420.743 469, 437.500 469 C 454.257 469, 455.902 468.836, 460.038 466.750 C 463.298 465.106, 465.106 463.298, 466.750 460.038 C 468.836 455.902, 469 454.257, 469 437.500 C 469 420.743, 468.836 419.098, 466.750 414.962 C 465.106 411.702, 463.298 409.894, 460.038 408.250 C 455.902 406.164, 454.257 406, 437.500 406 C 420.743 406, 419.098 406.164, 414.962 408.250 M 539.962 408.250 C 536.702 409.894, 534.894 411.702, 533.250 414.962 C 531.164 419.098, 531 420.743, 531 437.500 C 531 454.257, 531.164 455.902, 533.250 460.038 C 534.894 463.298, 536.702 465.106, 539.962 466.750 C 544.098 468.836, 545.743 469, 562.500 469 C 579.257 469, 580.902 468.836, 585.038 466.750 C 588.298 465.106, 590.106 463.298, 591.750 460.038 C 593.836 455.902, 594 454.257, 594 437.500 C 594 420.743, 593.836 419.098, 591.750 414.962 C 590.106 411.702, 588.298 409.894, 585.038 408.250 C 580.902 406.164, 579.257 406, 562.500 406 C 545.743 406, 544.098 406.164, 539.962 408.250 M 664.962 408.250 C 661.702 409.894, 659.894 411.702, 658.250 414.962 C 656.164 419.098, 656 420.743, 656 437.500 C 656 454.257, 656.164 455.902, 658.250 460.038 C 659.894 463.298, 661.702 465.106, 664.962 466.750 C 669.098 468.836, 670.743 469, 687.500 469 C 704.257 469, 705.902 468.836, 710.038 466.750 C 713.298 465.106, 715.106 463.298, 716.750 460.038 C 718.836 455.902, 719 454.257, 719 437.500 C 719 420.743, 718.836 419.098, 716.750 414.962 C 715.106 411.702, 713.298 409.894, 710.038 408.250 C 705.902 406.164, 704.257 406, 687.500 406 C 670.743 406, 669.098 406.164, 664.962 408.250 M 288.990 518.250 C 287.172 519.487, 284.743 521.770, 283.592 523.323 C 281.627 525.975, 281.500 527.409, 281.500 546.901 L 281.500 567.656 284.382 571.434 C 288.943 577.415, 291.451 578, 312.500 578 C 333.549 578, 336.057 577.415, 340.618 571.434 L 343.500 567.656 343.500 546.901 C 343.500 527.409, 343.373 525.975, 341.408 523.323 C 340.257 521.770, 337.828 519.487, 336.010 518.250 C 332.851 516.100, 331.806 516, 312.500 516 C 293.194 516, 292.149 516.100, 288.990 518.250 M 413.990 518.250 C 412.172 519.487, 409.743 521.770, 408.592 523.323 C 406.627 525.975, 406.500 527.409, 406.500 546.901 L 406.500 567.656 409.382 571.434 C 413.943 577.415, 416.451 578, 437.500 578 C 458.549 578, 461.057 577.415, 465.618 571.434 L 468.500 567.656 468.500 546.901 C 468.500 527.409, 468.373 525.975, 466.408 523.323 C 465.257 521.770, 462.828 519.487, 461.010 518.250 C 457.851 516.100, 456.806 516, 437.500 516 C 418.194 516, 417.149 516.100, 413.990 518.250 M 538.990 518.250 C 537.172 519.487, 534.743 521.770, 533.592 523.323 C 531.627 525.975, 531.500 527.409, 531.500 546.901 L 531.500 567.656 534.382 571.434 C 538.943 577.415, 541.451 578, 562.500 578 C 583.549 578, 586.057 577.415, 590.618 571.434 L 593.500 567.656 593.500 546.901 C 593.500 527.409, 593.373 525.975, 591.408 523.323 C 590.257 521.770, 587.828 519.487, 586.010 518.250 C 582.851 516.100, 581.806 516, 562.500 516 C 543.194 516, 542.149 516.100, 538.990 518.250 M 663.990 518.250 C 662.172 519.487, 659.743 521.770, 658.592 523.323 C 656.627 525.975, 656.500 527.409, 656.500 546.901 L 656.500 567.656 659.382 571.434 C 663.943 577.415, 666.451 578, 687.500 578 C 708.549 578, 711.057 577.415, 715.618 571.434 L 718.500 567.656 718.500 546.901 C 718.500 527.409, 718.373 525.975, 716.408 523.323 C 715.257 521.770, 712.828 519.487, 711.010 518.250 C 707.851 516.100, 706.806 516, 687.500 516 C 668.194 516, 667.149 516.100, 663.990 518.250 M 290.500 626.373 C 286.729 628.075, 284.498 630.563, 282.538 635.254 C 281.350 638.097, 281 642.971, 281 656.652 C 281 672.292, 281.233 674.845, 282.985 678.434 C 284.077 680.670, 286.632 683.625, 288.662 685 C 292.296 687.461, 292.666 687.500, 312.427 687.500 C 331.603 687.500, 332.664 687.398, 336.179 685.212 C 338.339 683.869, 340.713 681.158, 341.929 678.647 C 343.788 674.806, 344 672.530, 344 656.396 C 344 639.729, 343.837 638.104, 341.750 634.020 C 340.512 631.599, 338.231 628.691, 336.680 627.559 C 334.084 625.663, 332.257 625.481, 313.680 625.259 C 298.427 625.078, 292.768 625.349, 290.500 626.373 M 415.500 626.373 C 411.729 628.075, 409.498 630.563, 407.538 635.254 C 406.350 638.097, 406 642.971, 406 656.652 C 406 672.292, 406.233 674.845, 407.985 678.434 C 409.077 680.670, 411.632 683.625, 413.662 685 C 417.296 687.461, 417.666 687.500, 437.427 687.500 C 456.603 687.500, 457.664 687.398, 461.179 685.212 C 463.339 683.869, 465.713 681.158, 466.929 678.647 C 468.788 674.806, 469 672.530, 469 656.396 C 469 639.729, 468.837 638.104, 466.750 634.020 C 465.512 631.599, 463.231 628.691, 461.680 627.559 C 459.084 625.663, 457.257 625.481, 438.680 625.259 C 423.427 625.078, 417.768 625.349, 415.500 626.373 M 540.500 626.373 C 536.729 628.075, 534.498 630.563, 532.538 635.254 C 531.350 638.097, 531 642.971, 531 656.652 C 531 672.292, 531.233 674.845, 532.985 678.434 C 534.077 680.670, 536.632 683.625, 538.662 685 C 542.296 687.461, 542.666 687.500, 562.427 687.500 C 581.603 687.500, 582.664 687.398, 586.179 685.212 C 588.339 683.869, 590.713 681.158, 591.929 678.647 C 593.788 674.806, 594 672.530, 594 656.396 C 594 639.729, 593.837 638.104, 591.750 634.020 C 590.513 631.599, 588.231 628.691, 586.680 627.559 C 584.084 625.663, 582.257 625.481, 563.680 625.259 C 548.427 625.078, 542.768 625.349, 540.500 626.373 M 778.090 626.119 C 767.206 627.380, 751.140 631.483, 740.083 635.823 C 718.829 644.167, 700.235 656.718, 683.871 673.766 C 664.099 694.367, 650.230 720.532, 643.915 749.151 C 642.448 755.797, 641.696 763.704, 641.312 776.500 C 640.852 791.820, 641.079 796.299, 642.836 806.583 C 650.271 850.096, 674.293 887.251, 710.500 911.244 C 722.811 919.402, 733.157 924.457, 746.888 929.021 C 766.681 935.600, 772.728 936.501, 797 936.491 C 820.441 936.481, 826.504 935.636, 845 929.801 C 890.815 915.348, 928.249 878.550, 944.432 832.057 C 946.397 826.413, 948.985 817.229, 950.183 811.648 C 951.969 803.334, 952.375 798.066, 952.432 782.500 C 952.509 760.892, 951.019 750.434, 945.407 733.204 C 940.706 718.771, 935.145 707.390, 926.260 694.015 C 916.087 678.700, 899.628 662.153, 884.620 652.149 C 872.163 643.847, 865.131 640.131, 853.045 635.466 C 830.194 626.645, 802.903 623.242, 778.090 626.119 M 788.234 690.250 C 786.453 691.487, 784.096 694.330, 782.998 696.566 C 781.125 700.378, 781 702.668, 781 733.278 L 781 765.925 746.750 766.213 C 714.326 766.485, 712.354 766.607, 709.765 768.500 C 708.260 769.600, 706.067 772.443, 704.892 774.819 C 702.238 780.183, 702.753 785.676, 706.353 790.397 C 711.280 796.856, 712.195 797, 748.401 797 L 781 797 781 829.288 C 781 860.801, 781.054 861.682, 783.250 865.980 C 784.487 868.401, 786.686 871.246, 788.136 872.301 C 789.585 873.357, 792.769 874.445, 795.210 874.720 C 798.511 875.092, 800.727 874.670, 803.863 873.070 C 806.182 871.887, 808.959 869.475, 810.035 867.710 C 811.876 864.691, 811.993 862.489, 811.996 830.750 L 812 797 844.788 797 C 876.809 797, 877.680 796.947, 882.015 794.750 C 887.570 791.934, 890.385 787.286, 890.385 780.925 C 890.385 777.311, 889.739 775.347, 887.652 772.610 C 886.149 770.639, 883.924 768.458, 882.709 767.763 C 881.100 766.843, 871.268 766.364, 846.500 766 L 812.500 765.500 812 731.454 C 811.550 700.838, 811.318 697.131, 809.696 694.656 C 806.890 690.377, 802.185 688.008, 796.486 688.004 C 792.908 688.001, 790.544 688.644, 788.234 690.250" stroke="none"  fill-rule="evenodd"/>
</svg>