<svg xmlns="http://www.w3.org/2000/svg" width="1000" height="1000" viewBox="0 0 1000 1000" version="1.1">
	<path d="M 304 94.930 C 295.283 97.609, 287.543 104.431, 283.637 112.878 L 281.500 117.500 281.500 244 C 281.500 361.351, 281.631 371.329, 283.316 381.964 C 285.658 396.751, 290.889 417.011, 295.409 428.804 C 309.156 464.667, 332.811 497.138, 363 521.584 C 389.153 542.761, 422.027 558.431, 454 564.960 C 459.775 566.139, 465.512 567.314, 466.750 567.571 L 469 568.038 469 697.984 L 469 827.930 418.250 828.215 C 367.706 828.499, 367.480 828.509, 362.500 830.799 C 356.187 833.702, 350.582 839.079, 347.173 845.500 C 344.868 849.842, 344.518 851.685, 344.516 859.500 C 344.515 866.959, 344.906 869.235, 346.800 872.795 C 351.903 882.381, 359.486 888.006, 369.994 889.999 C 377.195 891.364, 622.805 891.364, 630.006 889.999 C 640.514 888.006, 648.097 882.381, 653.200 872.795 C 655.094 869.235, 655.485 866.959, 655.484 859.500 C 655.482 851.690, 655.130 849.831, 652.818 845.437 C 649.638 839.390, 643.467 833.571, 637.122 830.637 C 632.621 828.556, 631.168 828.493, 581.750 828.215 L 531 827.930 531 697.984 L 531 568.038 533.250 567.571 C 534.487 567.314, 540.225 566.139, 546 564.960 C 572.110 559.628, 598.633 548.362, 622 532.676 C 652.884 511.945, 678.668 482.660, 695.406 449.304 C 698.496 443.146, 702.629 433.921, 704.591 428.804 C 709.111 417.011, 714.342 396.751, 716.684 381.964 C 718.369 371.329, 718.500 361.351, 718.500 244 L 718.500 117.500 716.363 112.878 C 713.432 106.539, 707.615 100.366, 701.563 97.172 L 696.500 94.500 501.500 94.331 C 394.250 94.238, 305.375 94.507, 304 94.930 M 344 226.500 L 344 297 500 297 L 656 297 656 226.500 L 656 156 500 156 L 344 156 344 226.500 M 344.556 359.909 C 344.245 360.413, 344.667 365.987, 345.494 372.298 C 346.968 383.535, 350.074 396.032, 354.120 407 C 357.792 416.953, 367.967 435.456, 374.773 444.557 C 383.621 456.387, 397.395 469.925, 409.051 478.246 C 426.355 490.599, 448.206 500.303, 468 504.424 C 472.125 505.283, 481.006 506.508, 487.735 507.145 C 497.047 508.026, 503.038 508.023, 512.813 507.130 C 533.563 505.234, 551.674 500.160, 569.500 491.247 C 593.401 479.296, 614.085 461.131, 629.343 438.694 C 635.929 429.008, 643.111 414.470, 647.406 402.131 C 651.127 391.442, 654.732 374.298, 655.215 365 L 655.500 359.500 500.311 359.247 C 407.193 359.095, 344.896 359.360, 344.556 359.909" stroke="none"  fill-rule="evenodd"/>
</svg>