<?xml version="1.0" standalone="no"?>
<!DOCTYPE svg PUBLIC "-//W3C//DTD SVG 20010904//EN"
 "http://www.w3.org/TR/2001/REC-SVG-20010904/DTD/svg10.dtd">
<svg version="1.0" xmlns="http://www.w3.org/2000/svg"
 width="1000.000000pt" height="1000.000000pt" viewBox="0 0 1000.000000 1000.000000"
 preserveAspectRatio="xMidYMid meet">

<g transform="translate(0.000000,1000.000000) scale(0.100000,-0.100000)"
fill="#000000" stroke="none">
<path d="M1880 7794 c-172 -45 -332 -176 -408 -334 -22 -47 -46 -112 -52 -145
-8 -41 -10 -232 -8 -610 l3 -550 23 -44 c35 -64 104 -127 168 -150 44 -17 79
-21 177 -21 209 -1 363 -43 489 -133 77 -55 119 -100 188 -202 212 -314 253
-681 110 -991 -98 -212 -250 -364 -465 -465 -104 -49 -217 -76 -367 -88 -98
-7 -124 -13 -168 -37 -57 -31 -99 -74 -132 -137 -23 -42 -23 -43 -26 -592 -2
-378 0 -569 8 -610 6 -33 30 -98 52 -145 55 -114 168 -230 278 -283 150 -73
-140 -67 3276 -65 l3079 3 67 26 c189 74 326 214 390 398 23 66 23 67 23 646
l0 580 -23 43 c-31 59 -95 120 -151 145 -38 18 -75 22 -216 28 -230 10 -352
46 -485 144 -176 129 -330 430 -360 703 -19 174 9 328 91 498 95 199 241 344
443 440 112 53 224 80 378 93 98 7 124 13 168 37 57 31 99 74 132 137 23 42
23 43 26 592 2 378 0 569 -8 610 -6 33 -29 96 -50 140 -64 132 -157 228 -285
290 -143 71 135 65 -3250 64 -2634 0 -3068 -2 -3115 -15z m3592 -961 l3 -358
27 -50 c34 -64 90 -118 153 -147 75 -34 192 -32 260 4 63 33 118 88 147 147
22 45 23 57 28 401 l5 355 870 3 871 2 44 -22 c33 -17 51 -35 67 -68 22 -43
23 -54 23 -306 l0 -262 -52 -12 c-439 -104 -833 -419 -1033 -825 -108 -221
-152 -394 -162 -636 -21 -520 210 -1000 635 -1317 153 -114 376 -218 560 -262
l52 -12 0 -262 c0 -252 -1 -263 -22 -306 -17 -33 -35 -51 -68 -68 l-44 -22
-871 2 -870 3 -5 355 c-5 344 -6 356 -28 401 -29 59 -84 114 -147 147 -68 36
-185 38 -260 4 -63 -29 -119 -83 -153 -147 l-27 -50 -3 -357 -3 -358 -1652 0
-1653 0 -44 23 c-33 16 -51 34 -67 67 -22 42 -23 54 -23 306 l0 261 87 23
c507 134 922 525 1087 1026 82 250 98 565 40 824 -126 564 -568 1022 -1127
1170 l-87 23 0 261 c0 252 1 264 23 306 16 33 34 51 67 68 l44 22 1653 0 1652
0 3 -357z"/>
<path d="M5641 5589 c-74 -37 -133 -106 -156 -181 -22 -76 -22 -740 0 -816 23
-75 82 -144 156 -181 53 -27 73 -31 138 -31 127 0 222 58 283 173 23 42 23 46
23 447 0 401 0 405 -23 447 -36 68 -83 114 -147 145 -49 23 -73 28 -136 28
-65 0 -85 -4 -138 -31z"/>
</g>
</svg>
