<svg xmlns="http://www.w3.org/2000/svg" width="1000" height="1000" viewBox="0 0 1000 1000" version="1.1">
	<path d="M 302.028 189.044 C 256.891 192.135, 233.195 199.226, 217.179 214.436 C 213.144 218.269, 208.087 224.370, 205.912 228.032 C 198.252 240.925, 193.333 259.172, 190.479 285.277 C 188.132 306.749, 187.088 372.850, 187.088 500 C 187.088 627.518, 188.130 693.182, 190.499 715 C 193.240 740.244, 199.007 761.155, 206.494 773 C 210.498 779.335, 219.369 788.387, 225.675 792.572 C 236.627 799.842, 255.285 805.667, 276.521 808.448 C 305.334 812.220, 317.989 812.446, 500 812.446 C 681.959 812.446, 694.750 812.218, 723.645 808.452 C 739.682 806.361, 756.933 801.739, 766.634 796.934 C 776.250 792.170, 786.855 782.938, 792.526 774.395 C 800.771 761.974, 806.624 741.492, 809.501 715 C 811.870 693.182, 812.912 627.518, 812.912 500 C 812.912 372.482, 811.870 306.818, 809.501 285 C 806.629 258.550, 800.770 238.025, 792.561 225.658 C 787.687 218.316, 777.561 208.968, 769.789 204.637 C 757.654 197.875, 740.631 193.447, 714.723 190.314 C 701.774 188.748, 683.163 188.579, 507 188.426 C 400.575 188.334, 308.337 188.612, 302.028 189.044 M 295.144 251.092 C 289.999 251.557, 283.071 252.635, 279.750 253.486 C 272.155 255.431, 264.599 259.504, 261.257 263.454 C 257.382 268.035, 254.022 276.099, 252.165 285.277 C 250.645 292.788, 250.501 311.370, 250.501 500 C 250.501 688.630, 250.645 707.212, 252.165 714.723 C 254.044 724.010, 257.387 731.971, 261.402 736.718 C 265.155 741.154, 275.022 745.773, 285.073 747.798 C 292.836 749.361, 309.704 749.495, 499 749.497 C 656.681 749.499, 706.129 749.215, 711.500 748.275 C 728.127 745.366, 736.430 740.948, 741.623 732.246 C 745.745 725.340, 747.795 716.804, 749.067 701.245 C 749.761 692.761, 749.987 622.311, 749.742 490.500 C 749.410 312.163, 749.211 291.714, 747.741 284.581 C 745.755 274.951, 741.057 265.072, 736.718 261.402 C 732.074 257.475, 724.068 254.057, 715.215 252.223 C 708.314 250.794, 686.232 250.605, 506 250.435 C 395.175 250.330, 300.290 250.626, 295.144 251.092 M 511.768 442.250 C 511.490 569.292, 511.376 576.795, 509.642 582 C 506.420 591.670, 501.965 598.791, 495.084 605.271 C 491.445 608.697, 485.775 612.925, 482.484 614.666 C 474.985 618.633, 465.954 621, 458.316 621 C 439.476 621, 418.096 608.345, 409.747 592.252 C 407.821 588.539, 405.654 583.025, 404.933 580 C 403.278 573.056, 403.287 559.174, 404.952 552 C 406.951 543.386, 411.817 534.401, 417.633 528.584 C 423.530 522.688, 433.391 517.080, 442.500 514.442 C 449.015 512.556, 462.589 512.003, 470.250 513.311 L 475 514.123 475 480.030 C 475 448.494, 474.869 445.885, 473.250 445.237 C 472.288 444.852, 464.750 444.541, 456.500 444.545 C 440.374 444.553, 430.821 446.029, 417.013 450.643 C 407.349 453.873, 395.206 460.002, 387 465.792 C 378.163 472.028, 366.968 482.951, 360.138 492 C 353.863 500.314, 347.268 512.393, 343.414 522.632 C 337.091 539.432, 334.212 560.752, 336.033 577.299 C 338.196 596.956, 344.692 615.788, 355.149 632.720 C 358.736 638.527, 364.291 645.219, 372 653.020 C 378.325 659.421, 386.200 666.414, 389.500 668.560 C 403.450 677.633, 420.259 684.335, 436 687.099 C 445.567 688.779, 469.127 688.775, 479.500 687.091 C 488.814 685.579, 505.378 680.348, 513.111 676.476 C 528.619 668.711, 544.301 655.536, 554.745 641.500 C 561.834 631.972, 570.149 615.557, 573.950 603.584 C 579.739 585.353, 579.988 581.362, 579.994 506.667 C 579.997 469.358, 580.337 438.983, 580.750 439.167 C 581.163 439.350, 585.325 441.612, 590 444.193 C 610.364 455.438, 637.829 463.285, 660 464.193 L 667.500 464.500 667.763 431.903 L 668.027 399.307 659.479 398.111 C 635.840 394.804, 614.792 384.510, 601.393 369.703 C 587.918 354.814, 580.412 337.106, 577.462 313.250 L 576.812 308 544.437 308 L 512.062 308 511.768 442.250" stroke="none"  fill-rule="evenodd"/>
</svg>