<svg xmlns="http://www.w3.org/2000/svg" width="1000" height="1000" viewBox="0 0 1000 1000" version="1.1">
	<path d="M 160.500 126.399 C 153.757 128.531, 150.499 130.674, 145.230 136.439 C 142.076 139.890, 139.485 143.960, 138.355 147.238 C 135.865 154.465, 136.005 165.117, 138.668 171.050 C 139.792 173.553, 196.351 252.640, 264.355 346.799 C 332.359 440.959, 388.112 518.390, 388.250 518.869 C 388.387 519.349, 335.625 584.802, 271 664.321 C 183.637 771.819, 152.526 810.773, 149.703 816.200 C 146.735 821.907, 145.779 825.052, 145.320 830.610 C 144.612 839.188, 146.104 846.330, 150.254 854.237 C 151.910 857.392, 155.395 861.967, 158 864.403 C 166.956 872.780, 178.194 876.693, 190.369 875.672 C 195.625 875.232, 199.272 874.179, 204.479 871.600 C 208.340 869.687, 213.300 866.281, 215.500 864.031 C 217.700 861.781, 268.786 799.316, 329.025 725.220 C 389.264 651.124, 438.989 590.523, 439.525 590.551 C 440.061 590.579, 482.215 648.404, 533.201 719.051 C 604.998 818.535, 627.420 848.924, 632.634 853.814 C 641.213 861.861, 650.496 867.362, 662.220 871.346 L 671.500 874.500 755 874.500 L 838.500 874.500 843.760 872.122 C 850.792 868.944, 859.204 859.849, 861.633 852.796 C 864.129 845.550, 864 834.895, 861.344 828.978 C 860.227 826.491, 794.989 735.366, 716.369 626.478 C 637.750 517.590, 573.101 427.976, 572.706 427.336 C 572.271 426.631, 609.901 379.516, 668.151 307.836 C 739.786 219.683, 765.063 187.906, 767.251 183.249 C 769.424 178.626, 770.330 174.947, 770.729 169.121 C 771.159 162.855, 770.840 159.832, 769.170 154.335 C 766.338 145.012, 760.310 136.803, 752.665 131.862 C 744.158 126.363, 737.662 124.676, 726.971 125.187 C 719.683 125.536, 717.175 126.132, 711.737 128.809 C 708.157 130.571, 703.489 133.708, 701.364 135.780 C 699.239 137.852, 657.919 188.256, 609.543 247.789 C 526.575 349.890, 521.491 355.930, 519.924 354.265 C 519.009 353.294, 486.005 307.725, 446.580 253 C 394.505 180.715, 373.037 151.689, 368.090 146.878 C 364.346 143.236, 358.166 138.406, 354.358 136.143 C 346.236 131.318, 335.870 127.509, 326.901 126.054 C 322.843 125.395, 291.950 125.037, 242.500 125.074 C 182.517 125.120, 163.576 125.426, 160.500 126.399 M 268.248 209.250 C 268.475 209.938, 363.125 341.320, 478.581 501.212 L 688.500 791.923 710.333 791.962 C 726.254 791.990, 732.064 791.691, 731.786 790.859 C 731.577 790.232, 636.927 658.849, 521.453 498.898 L 311.500 208.078 289.667 208.039 C 272.632 208.009, 267.924 208.275, 268.248 209.250" stroke="none"  fill-rule="evenodd"/>
</svg>