<svg xmlns="http://www.w3.org/2000/svg" width="1000" height="1000" viewBox="0 0 1000 1000" version="1.1">
	<path d="M 443.500 32.054 C 435.427 33.465, 429.514 35.540, 422.688 39.358 C 419.166 41.327, 414.021 44.974, 411.254 47.462 C 404.455 53.574, 397.534 63.965, 394.229 73.023 L 391.500 80.500 391.234 196.674 L 390.967 312.848 384.234 317.602 C 373.163 325.419, 362.957 334.258, 352.950 344.694 C 328.367 370.328, 312.243 399.269, 303.505 433.439 C 296.637 460.301, 296.887 451.085, 297.209 666 L 297.500 859.500 299.696 867.198 C 302.390 876.643, 307.548 887.973, 312.658 895.673 C 317.742 903.332, 326.796 912.916, 334.369 918.656 C 341.551 924.099, 357.841 932.031, 366.756 934.426 C 370.197 935.351, 378.072 936.526, 384.256 937.037 C 399.221 938.275, 601.231 938.243, 616 937.001 C 632.612 935.603, 644.223 931.916, 658.345 923.553 C 662.110 921.324, 668.666 916.274, 672.914 912.332 C 685.981 900.204, 695.377 884.569, 700.196 866.933 L 702.500 858.500 702.500 660.500 C 702.500 475.207, 702.386 461.858, 700.723 452.500 C 694.617 418.137, 682.062 388.582, 662.495 362.512 C 650.709 346.809, 630.092 327.186, 613.766 316.131 L 609.033 312.926 608.766 196.713 L 608.500 80.500 605.771 73.023 C 602.377 63.723, 595.445 53.447, 588.220 47.008 C 581.821 41.305, 572.053 35.929, 563.500 33.403 C 558.125 31.816, 551.818 31.608, 503 31.405 C 473.025 31.281, 446.250 31.573, 443.500 32.054 M 460.990 96.250 C 459.172 97.487, 456.743 99.769, 455.592 101.321 C 453.616 103.986, 453.484 105.578, 453.203 130.071 L 452.905 156 500 156 L 547.095 156 546.797 130.071 C 546.516 105.578, 546.384 103.986, 544.408 101.321 C 543.257 99.769, 540.828 97.487, 539.010 96.250 C 535.734 94.020, 535.380 94, 500 94 C 464.620 94, 464.266 94.020, 460.990 96.250 M 453 277.318 C 453 342.532, 453.050 341.996, 446.121 350.685 C 443.989 353.359, 439.663 357.005, 436.391 358.885 C 421.481 367.453, 410.008 375.945, 400.465 385.477 C 384.851 401.072, 373.235 419.866, 366.503 440.424 C 364.689 445.966, 362.371 455.225, 361.352 461 C 359.593 470.974, 359.500 480.991, 359.500 661.101 L 359.500 850.701 363 857.563 C 365.537 862.537, 367.876 865.471, 371.500 868.228 C 380.897 875.376, 373.757 875, 500 875 C 626.243 875, 619.103 875.376, 628.500 868.228 C 632.124 865.471, 634.463 862.537, 637 857.563 L 640.500 850.701 640.500 660.601 C 640.500 482.565, 640.387 469.897, 638.720 461 C 633.792 434.697, 622.887 411.701, 606.081 392.174 C 595.713 380.128, 580.693 368.229, 566 360.422 C 558.302 356.332, 551.603 349.228, 549.076 342.474 C 547.061 337.088, 547 335.198, 547 277.962 L 547 219 500 219 L 453 219 453 277.318 M 413.951 532.348 C 407.790 534.029, 402.837 537.242, 398.083 542.643 C 390.611 551.132, 390.935 546.426, 391.233 642.058 L 391.500 727.500 393.767 732.100 C 396.669 737.990, 402.163 743.491, 408.500 746.850 L 413.500 749.500 500 749.500 L 586.500 749.500 591.687 746.765 C 598.079 743.395, 603.220 738.217, 606.220 732.127 L 608.500 727.500 608.767 642.058 C 609.067 545.739, 609.461 551.065, 601.382 542.080 C 598.793 539.200, 594.501 535.920, 591.203 534.300 L 585.500 531.500 502 531.303 C 438.118 531.153, 417.431 531.399, 413.951 532.348 M 453.240 640.750 L 453.500 687.500 500 687.500 L 546.500 687.500 546.760 640.750 L 547.020 594 500 594 L 452.980 594 453.240 640.750" stroke="none"  fill-rule="evenodd"/>
</svg>