<svg xmlns="http://www.w3.org/2000/svg" width="1000" height="1000" viewBox="0 0 1000 1000" version="1.1">
	<path d="M 430.288 79.038 C 415.986 80.403, 396.856 83.720, 381.459 87.504 C 364.909 91.571, 339.295 100.113, 322.596 107.132 C 289.744 120.942, 251.157 143.223, 241.969 153.688 C 240.177 155.729, 237.803 159.446, 236.693 161.949 C 234.067 167.872, 234.002 178.707, 236.556 184.950 C 238.522 189.754, 446.248 490.442, 451.192 495.640 C 455.268 499.925, 462.332 503.560, 469.369 504.995 C 480.471 507.258, 489.950 504.186, 497.386 495.916 C 503.465 489.154, 505 484.074, 505 470.711 C 505 457.820, 493.306 115.008, 492.595 107.083 C 491.944 99.816, 487.006 89.965, 482.045 86.035 C 479.908 84.343, 475.986 81.985, 473.330 80.796 C 469.207 78.950, 466.379 78.599, 454 78.396 C 446.025 78.265, 435.355 78.554, 430.288 79.038 M 416.885 144.014 C 395.999 147.729, 370.414 155.186, 348.500 163.944 C 340.704 167.060, 313.828 179.899, 311.169 181.778 C 310.151 182.497, 324.991 204.604, 374.419 276 L 439 369.281 438.927 360.891 C 438.887 356.276, 437.199 305.250, 435.177 247.500 C 431.573 144.576, 431.460 142.496, 429.500 142.313 C 428.400 142.210, 422.723 142.976, 416.885 144.014 M 704.500 315.875 C 701.200 317.456, 697.300 320.043, 695.832 321.624 C 690.323 327.563, 547.912 518.676, 546.048 522.633 C 537.679 540.390, 548.651 561.757, 568.302 565.971 C 572.997 566.978, 583.054 565.450, 696.948 546.419 C 781.726 532.254, 821.798 525.165, 824.636 523.831 C 834.862 519.024, 841.707 509.354, 842.703 498.307 C 843.085 494.065, 842.538 489.646, 840.671 481.912 C 832.030 446.097, 816.044 410.183, 796.200 382 C 782.832 363.013, 763.848 342.070, 746.178 326.816 C 732.992 315.431, 728.075 313.023, 718 313.011 C 711.787 313.003, 709.470 313.495, 704.500 315.875 M 684.677 440.190 C 664.012 467.861, 647.552 490.657, 648.098 490.849 C 649.066 491.188, 771.126 471.015, 771.878 470.391 C 772.557 469.828, 765.709 453.736, 760.221 443 C 751.847 426.617, 740.799 410.683, 727.375 395.629 L 722.250 389.881 684.677 440.190 M 190.314 463.794 C 182.750 466.500, 177.286 470.479, 173.984 475.687 C 168.646 484.103, 159.874 513.742, 156.060 536.245 C 151.524 563.013, 150.943 594.664, 154.497 621.460 C 157.113 641.184, 163.224 666.834, 168.959 682.162 C 171.625 689.286, 177.781 696.322, 184.377 699.783 C 188.782 702.095, 190.690 702.469, 198 702.454 L 206.500 702.436 318.500 659.275 C 380.100 635.537, 432.218 615.396, 434.317 614.516 C 439.717 612.254, 446.741 605.444, 449.701 599.603 C 452.734 593.619, 453.708 584.915, 452.086 578.309 C 450.563 572.106, 444.949 563.894, 439.989 560.611 C 437.843 559.192, 384.705 536.625, 321.904 510.464 C 196.462 458.209, 201.213 459.894, 190.314 463.794 M 219.667 536.730 C 218.490 538.633, 215.982 556.296, 214.976 569.750 C 214.231 579.727, 214.225 588.123, 214.955 597.750 C 215.959 610.979, 218.395 628.728, 219.337 629.670 C 219.825 630.158, 335.002 586.240, 336.252 585.089 C 336.665 584.708, 311.240 573.681, 279.752 560.584 C 248.263 547.487, 221.983 536.567, 221.351 536.318 C 220.719 536.068, 219.961 536.253, 219.667 536.730 M 569.951 613.362 C 567.448 614.037, 563.744 615.613, 561.718 616.865 C 553.119 622.180, 547 633.253, 547 643.500 C 547 646.595, 547.884 651.196, 549.057 654.212 C 550.188 657.121, 582.251 706.075, 620.307 763 C 686.717 862.338, 689.733 866.660, 695.300 870.470 C 700.394 873.956, 701.933 874.487, 707.930 874.826 C 718.442 875.420, 724.215 873.270, 736.241 864.281 C 748.804 854.891, 774.889 829.102, 785.787 815.298 C 802.207 794.500, 817.046 769.771, 827.070 746.500 C 829.913 739.900, 834.527 727.750, 837.324 719.500 C 841.833 706.196, 842.412 703.539, 842.440 696 C 842.467 688.716, 842.095 686.784, 839.840 682.500 C 834.719 672.769, 828.333 668.004, 816.489 665.075 C 812.095 663.989, 795.225 660.125, 779 656.489 C 762.775 652.853, 738.475 647.396, 725 644.361 C 620.516 620.831, 580.246 612.009, 577.586 612.067 C 575.889 612.105, 572.453 612.687, 569.951 613.362 M 465.324 642.638 C 463.028 643.451, 459.074 645.944, 456.538 648.176 C 450.616 653.388, 289.317 827.069, 286.370 831.406 C 285.150 833.201, 283.397 837.268, 282.474 840.442 C 279.383 851.074, 282.720 862.660, 291.241 870.879 C 297.534 876.949, 316.873 891.279, 328.708 898.641 C 341.050 906.319, 361.311 916.553, 374.798 921.923 C 394.624 929.815, 419.411 936.332, 441.500 939.458 C 456.731 941.614, 478.855 942.882, 484.808 941.941 C 491.207 940.930, 496.534 938.162, 501.348 933.348 C 505.801 928.895, 508.555 923.937, 509.900 917.950 C 510.509 915.240, 510.350 876.181, 509.459 809.111 C 507.506 662.271, 507.613 666.348, 505.575 660.805 C 503.071 653.992, 496.678 647.236, 489.540 643.859 C 484.598 641.521, 482.228 641.016, 476.500 641.080 C 472.650 641.123, 467.621 641.824, 465.324 642.638 M 648 691.400 C 648 691.738, 663.790 715.692, 683.088 744.633 L 718.177 797.251 723.207 792.375 C 731.251 784.580, 742.801 770.344, 750.288 759 C 758.434 746.657, 771.743 720.290, 770.412 719.128 C 769.911 718.690, 742.725 712.348, 710 705.035 C 677.275 697.722, 649.938 691.524, 649.250 691.262 C 648.563 691, 648 691.062, 648 691.400 M 403.208 796.519 C 379.948 821.563, 360.683 842.662, 360.398 843.405 C 359.878 844.761, 368.661 850.315, 381.500 856.748 C 397.791 864.909, 426.942 874.304, 442.654 876.455 L 447.807 877.161 447.293 832.331 C 447.011 807.674, 446.492 779.284, 446.140 769.242 L 445.500 750.984 403.208 796.519" stroke="none"  fill-rule="evenodd"/>
</svg>